<svg xmlns="http://www.w3.org/2000/svg" xmlns:xlink="http://www.w3.org/1999/xlink" width="178" height="120" viewBox="0 0 178 120">
  <defs>
    <style>
      .cls-1 {
        fill: #5271ff;
        opacity: 0.22;
        isolation: isolate;
      }

      .cls-2 {
        fill: #fff;
      }

      .cls-3 {
        fill: #14085a;
      }

      .cls-4 {
        filter: url(#타원_3);
      }
    </style>
    <filter id="타원_3" x="59" y="0" width="119" height="120" filterUnits="userSpaceOnUse">
      <feOffset dx="-2" dy="1" input="SourceAlpha"/>
      <feGaussianBlur stdDeviation="3" result="blur"/>
      <feFlood flood-opacity="0.302"/>
      <feComposite operator="in" in2="blur"/>
      <feComposite in="SourceGraphic"/>
    </filter>
  </defs>
  <g id="그룹_5" data-name="그룹 5" transform="translate(0 8.408)">
    <g id="그룹_4" data-name="그룹 4" transform="translate(0)">
      <ellipse id="타원_2" data-name="타원 2" class="cls-1" cx="50.5" cy="51" rx="50.5" ry="51" transform="translate(0 -0.408)"/>
      <path id="패스_3" data-name="패스 3" class="cls-2" d="M27.734,56.035,6,43.2,27.729,73.828,49.484,43.2,27.729,56.03h0ZM28.063,3,6.309,39.072l21.754,12.85L49.817,39.087Z" transform="translate(24.355 12.178)"/>
    </g>
    <g id="그룹_3" data-name="그룹 3" transform="translate(69.817)">
      <ellipse id="타원_1" data-name="타원 1" class="cls-2" cx="50.5" cy="51" rx="50.5" ry="51" transform="translate(0.183 -0.408)"/>
      <g class="cls-4" transform="matrix(1, 0, 0, 1, -69.82, -8.41)">
        <ellipse id="타원_3-2" data-name="타원 3" class="cls-2" cx="50.5" cy="51" rx="50.5" ry="51" transform="translate(70 8)"/>
      </g>
      <g id="그룹_2" data-name="그룹 2" transform="translate(5.059 5.059)">
        <g id="그룹_1" data-name="그룹 1" transform="translate(25.273 42.716)">
          <path id="패스_1" data-name="패스 1" class="cls-3" d="M28.732,27.153c-.287,1.574-4.223,12.6-5.8,17.252a6.994,6.994,0,0,1-2.362,3.505,3.593,3.593,0,0,1-4.155.212A2.863,2.863,0,0,1,15.274,44.4C17.3,38.455,19.358,32.445,21.5,26.5a4.169,4.169,0,0,1,4.867-2.793,2.932,2.932,0,0,1,2.372,3.4Z" transform="translate(-14.989 -23.608)"/>
        </g>
        <path id="패스_2" data-name="패스 2" class="cls-3" d="M58.151,57.052A4.845,4.845,0,0,1,64.1,54.259a5.233,5.233,0,0,1,1.933,7.8,38.194,38.194,0,0,1-8.732,12.1,31.546,31.546,0,0,1-16.853,5.656A49.384,49.384,0,0,1,25.985,77.8a1.511,1.511,0,0,0-1.143,0,1.34,1.34,0,0,0-.571.718c-.644,1.518-2.151,4.654-2.222,4.8a1.266,1.266,0,0,0-.071.787,1.355,1.355,0,0,0,.431.718,41.317,41.317,0,0,0,25.553,8.748A45.533,45.533,0,1,0,2.5,47.962v.071A45.032,45.032,0,0,0,12.521,76.455L24.977,40.231s1.3-5.013,5.727-5.353a5.431,5.431,0,0,1,5.44,2.434c.212.21.358.429.571.429a2.691,2.691,0,0,0,.644-.142,12.112,12.112,0,0,1,12.648,1.433A10.258,10.258,0,0,1,52.8,50.775a157.673,157.673,0,0,1-6.229,18.253c-.071.287-.071.429.506.287a15.165,15.165,0,0,0,6.071-3.936A43.953,43.953,0,0,0,58.151,57.052Z" transform="translate(-2.5 -2.5)"/>
      </g>
    </g>
  </g>
</svg>
