<svg id="icon_usd" xmlns="http://www.w3.org/2000/svg" width="16" height="16" viewBox="0 0 16 16">
  <circle id="circle_66" data-name="circle 66" cx="8" cy="8" r="8" fill="#00f0ff"/>
  <g id="pass_2046" data-name="pass 2046" transform="translate(2 2)">
    <path d="M 6 11.5 C 2.967289924621582 11.5 0.5 9.032710075378418 0.5 6 C 0.5 2.967289924621582 2.967289924621582 0.5 6 0.5 C 9.032710075378418 0.5 11.5 2.967289924621582 11.5 6 C 11.5 9.032710075378418 9.032710075378418 11.5 6 11.5 Z" stroke="none"/>
    <path d="M 6 1 C 3.242989540100098 1 1 3.242989540100098 1 6 C 1 8.757009506225586 3.242989540100098 11 6 11 C 8.757009506225586 11 11 8.757009506225586 11 6 C 11 3.242989540100098 8.757009506225586 1 6 1 M 6 0 C 9.31371021270752 0 12 2.68628978729248 12 6 C 12 9.31371021270752 9.31371021270752 12 6 12 C 2.68628978729248 12 0 9.31371021270752 0 6 C 0 2.68628978729248 2.68628978729248 0 6 0 Z" stroke="none" fill="#fff"/>
  </g>
  <g id="group_638" data-name="group 638" transform="translate(6 4.4)">
    <g id="group_636" data-name="group 636" transform="translate(0 -0.4)">
      <path id="pass_2045" data-name="pass 2045" d="M8.787,8.612a1.815,1.815,0,0,1-.941.6.262.262,0,0,0-.228.3c.007.167,0,.332,0,.5a.207.207,0,0,1-.223.232c-.1,0-.19,0-.286,0s-.167,0-.251,0A.216.216,0,0,1,6.625,10c0-.121,0-.244,0-.365,0-.269-.012-.279-.269-.321A3.423,3.423,0,0,1,5.4,9.044c-.237-.116-.262-.174-.2-.425.051-.186.1-.372.16-.555.042-.135.081-.2.153-.2a.407.407,0,0,1,.167.058,3.1,3.1,0,0,0,1.064.318,1.7,1.7,0,0,0,.188.012,1.255,1.255,0,0,0,.509-.1.541.541,0,0,0,.13-.95,1.7,1.7,0,0,0-.4-.232,9.3,9.3,0,0,1-1.087-.488,1.537,1.537,0,0,1-.869-1.47A1.619,1.619,0,0,1,6.4,3.512c.29-.1.293-.1.293-.4,0-.1,0-.2,0-.309.007-.228.044-.267.272-.274h.265c.432,0,.432.019.434.485,0,.344,0,.344.344.4a3.024,3.024,0,0,1,.752.225.219.219,0,0,1,.142.293c-.06.209-.118.42-.183.627-.042.125-.081.183-.156.183a.373.373,0,0,1-.158-.049,2.375,2.375,0,0,0-1.052-.242c-.046,0-.1,0-.142,0a.937.937,0,0,0-.318.065.451.451,0,0,0-.111.8,2.1,2.1,0,0,0,.518.29,9.339,9.339,0,0,1,.945.427A1.7,1.7,0,0,1,8.787,8.612Z" transform="translate(-5.169 -2.525)" fill="#fff"/>
    </g>
  </g>
</svg>
