<svg xmlns="http://www.w3.org/2000/svg" width="16" height="16" viewBox="0 0 16 16">
<path fill="#ffffff"
        d="M11.375,3.375a8,8,0,1,0,8,8A8,8,0,0,0,11.375,3.375Zm-.829,14.808A6.858,6.858,0,0,1,6.156,6.927a7.658,7.658,0,0,1,.078.93,2.968,2.968,0,0,0,.382,2.26,3.729,3.729,0,0,1,.362,1.08c.1.341.5.519.77.729.552.423,1.081.916,1.666,1.288.387.246.628.368.515.84A2.969,2.969,0,0,1,9.616,15a1.928,1.928,0,0,0,.321.861c.288.288.574.553.889.812C11.313,17.081,10.778,17.6,10.546,18.183Zm5.677-1.959a6.81,6.81,0,0,1-3.56,1.888,2.849,2.849,0,0,1,.842-1.13,2.871,2.871,0,0,0,.758-.936,6.407,6.407,0,0,1,.522-.893c.272-.419-.67-1.051-.975-1.184A10.066,10.066,0,0,1,12,12.839c-.435-.306-1.318.16-1.808-.055a9.455,9.455,0,0,1-1.811-1.244c-.6-.454-.574-.984-.574-1.654.473.018,1.144-.131,1.458.249.1.12.439.655.667.465.186-.155-.138-.779-.2-.926-.193-.451.439-.626.761-.932.422-.4,1.326-1.024,1.254-1.31s-.9-1.1-1.394-.969c-.073.019-.719.7-.844.8l.01-.663c0-.139-.26-.283-.248-.373.031-.228.664-.64.822-.822-.11-.069-.487-.392-.6-.345-.276.115-.587.194-.864.309A1.719,1.719,0,0,0,8.6,5.1l.542.218.382.454.382.394.334.108.53-.5,1.607-.862V4.59a6.782,6.782,0,0,1,2.9,1.146c-.155.014-.325.037-.518.061a1.657,1.657,0,0,0-.268-.1c.251.54.513,1.073.779,1.605.284.569.915,1.18,1.026,1.781.131.708.04,1.352.112,2.185a3.734,3.734,0,0,0,.9,1.714,1.82,1.82,0,0,0,.707.086,6.819,6.819,0,0,1-1.8,3.156Z" transform="translate(-3.375 -3.375)"/>
</svg>