<svg xmlns="http://www.w3.org/2000/svg" width="19.588" height="17.507" viewBox="0 0 19.588 17.507"><defs><style>.a{fill:none;stroke:#fff;stroke-linejoin:round;stroke-width:1.5px;}.b{fill:#fff;}</style></defs><g transform="translate(-2.625 -3.744)"><path class="a" d="M5.462,10.125H19.376a2.087,2.087,0,0,1,2.087,2.087V20.56a2.087,2.087,0,0,1-2.087,2.087H5.462A2.087,2.087,0,0,1,3.375,20.56V12.212a2.087,2.087,0,0,1,2.087-2.087Z" transform="translate(0 -2.146)"/><path class="a" d="M19.174,7.979v-1.3a2.174,2.174,0,0,0-2.581-2.135L5.142,6.494A2.174,2.174,0,0,0,3.375,8.631v2.13" transform="translate(0)"/><path class="b" d="M25.016,20.783a1.391,1.391,0,1,1,1.391-1.391A1.391,1.391,0,0,1,25.016,20.783Z" transform="translate(-7.728 -5.152)"/></g></svg>