<svg xmlns="http://www.w3.org/2000/svg" width="89.541" height="89.54" viewBox="0 0 89.541 89.54"><defs><style>.a{fill:#5271ff;}.b{fill:#00f0ff;}</style></defs><path class="a" d="M133.961,95.26a1.749,1.749,0,0,0-2.079,1.338,36.114,36.114,0,0,1-4.408,10.918,23.781,23.781,0,0,1-10.764,9.452,19.775,19.775,0,0,0,4.179-22.6c-.008-.019-.016-.038-.025-.056s-.016-.033-.025-.051a19.889,19.889,0,0,0-1.155-2.09,19.161,19.161,0,0,1-.712-14.626,1.749,1.749,0,0,0-1.793-2.434,13.152,13.152,0,0,0-8.05,4.732c-1.655-4.977-5.949-10.675-12.04-13.058a1.749,1.749,0,0,0-2.341,2.024c1.564,6.737-2.2,12.941-6.189,19.508-.659,1.086-1.339,2.207-1.985,3.317a19.737,19.737,0,0,0-1.825,3.332c-.012.027-.024.054-.035.081a19.79,19.79,0,0,0,5.945,23.2A24.214,24.214,0,0,1,72.742,95.143c0-.049.018-.982.038-1.4a24.106,24.106,0,0,1,1.46-6.958q.121-.328.25-.659c2.664-6.85,6.735-11.734,10.672-16.458C91.139,62.5,96.811,55.695,94.423,44.13a23.784,23.784,0,0,1,15.253,12.655,28.927,28.927,0,0,1,3.037,13.671,1.749,1.749,0,0,0,2.957,1.416,17.667,17.667,0,0,0,5.656-10.295c3.524,4.281,8.922,12.124,10.7,21.718a1.749,1.749,0,1,0,3.439-.638c-2.915-15.712-14.462-26.7-14.953-27.161a1.746,1.746,0,0,0-2.847,1.853c.065.193,1.276,3.95-1.649,8.628a34.009,34.009,0,0,0-3.21-10.749C110,49.58,104.174,42.36,92.35,40.031a1.749,1.749,0,0,0-2.013,2.222c2.291,7.582.922,12.777-2.082,17.6A19.266,19.266,0,0,0,76.8,53.271,1.75,1.75,0,0,0,75,55.7a27.314,27.314,0,0,1,1.664,7.212,29.682,29.682,0,0,1-2.8,16.216,29.761,29.761,0,0,0-1.752,3.161,1.785,1.785,0,0,0-.083.176,29.3,29.3,0,0,0-2.75,11.263c0,.1-.017.474-.019.568a26.99,26.99,0,0,0,.264,4.576A27.788,27.788,0,0,0,83.79,119.262a27.285,27.285,0,0,0,13.1,3.28h10.037a27.746,27.746,0,0,0,13.517-3.517,27.2,27.2,0,0,0,10.032-9.709A39.589,39.589,0,0,0,135.3,97.34a1.748,1.748,0,0,0-1.338-2.079ZM86.077,62.7a1.668,1.668,0,0,0,.118.132c-1.139,1.508-2.4,3.022-3.72,4.6-.783.939-1.586,1.9-2.394,2.9a34.435,34.435,0,0,0-.809-12.773A17.037,17.037,0,0,1,86.077,62.7Zm9.742,49.216c0-2.216,1.606-4.542,3.64-7.486a58.578,58.578,0,0,0,3.979-6.357c4.583,5.115,6.65,9.45,6.65,13.842a7.134,7.134,0,0,1-14.269,0Zm-9.162-9.162a16.2,16.2,0,0,1,1.286-6.357l.008-.017A16.251,16.251,0,0,1,89.5,93.559c.024-.036.047-.072.069-.11.638-1.1,1.321-2.224,1.982-3.313,3.568-5.878,7.24-11.927,7.054-18.634,5.707,3.781,8.379,10.915,7.675,13.439a1.749,1.749,0,0,0,3.326,1.075,11.676,11.676,0,0,1,5.16-6.4A22.408,22.408,0,0,0,116.582,93.8a1.712,1.712,0,0,0,.1.176,16.326,16.326,0,0,1,1.006,1.81c0,.008.008.016.011.023a16.287,16.287,0,0,1-4.789,19.837,10.573,10.573,0,0,0,.678-3.731c0-5.9-2.893-11.492-9.38-18.139a1.749,1.749,0,0,0-2.864.544,44.833,44.833,0,0,1-4.76,8.122c-2.286,3.309-4.26,6.167-4.26,9.473A10.582,10.582,0,0,0,93,115.642a16.276,16.276,0,0,1-6.342-12.893Zm0,0" transform="translate(-57.14 -33.003)"/><path class="b" d="M41.749,0A1.749,1.749,0,0,0,40,1.749V4.27a1.749,1.749,0,1,0,3.5,0V1.749A1.749,1.749,0,0,0,41.749,0Zm0,0" transform="translate(-33.005)"/><path class="b" d="M41.749,65.586A1.749,1.749,0,0,0,40,67.335v2.521a1.749,1.749,0,1,0,3.5,0V67.335A1.749,1.749,0,0,0,41.749,65.586Zm0,0" transform="translate(-33.005 -54.116)"/><path class="b" d="M69.856,43.5a1.749,1.749,0,1,0,0-3.5H67.335a1.749,1.749,0,0,0,0,3.5Zm0,0" transform="translate(-54.116 -33.005)"/><path class="b" d="M4.27,40H1.749a1.749,1.749,0,1,0,0,3.5H4.27a1.749,1.749,0,1,0,0-3.5Zm0,0" transform="translate(0 -33.005)"/><path class="b" d="M453.749,42.547A1.749,1.749,0,0,0,452,44.3v2.521a1.749,1.749,0,0,0,3.5,0V44.3A1.749,1.749,0,0,0,453.749,42.547Zm0,0" transform="translate(-372.952 -35.106)"/><path class="b" d="M453.749,108.133A1.749,1.749,0,0,0,452,109.882V112.4a1.749,1.749,0,1,0,3.5,0v-2.521A1.749,1.749,0,0,0,453.749,108.133Zm0,0" transform="translate(-372.952 -89.222)"/><path class="b" d="M481.856,82.547h-2.521a1.749,1.749,0,1,0,0,3.5h2.521a1.749,1.749,0,0,0,0-3.5Zm0,0" transform="translate(-394.064 -68.111)"/><path class="b" d="M413.749,86.045h2.521a1.749,1.749,0,0,0,0-3.5h-2.521a1.749,1.749,0,0,0,0,3.5Zm0,0" transform="translate(-339.948 -68.111)"/><path class="a" d="M433.437,315.75a1.749,1.749,0,1,0,1.236.512A1.759,1.759,0,0,0,433.437,315.75Zm0,0" transform="translate(-356.193 -260.53)"/></svg>