<svg xmlns="http://www.w3.org/2000/svg" width="50" height="50" viewBox="0 0 50 50"><defs><style>.a{fill:#5271ff;fill-rule:evenodd;}</style></defs><path class="a" d="M43.75,3.125H6.25A3.125,3.125,0,0,0,3.125,6.25v37.5A3.125,3.125,0,0,0,6.25,46.875h37.5a3.125,3.125,0,0,0,3.125-3.125V6.25A3.125,3.125,0,0,0,43.75,3.125ZM6.25,0A6.25,6.25,0,0,0,0,6.25v37.5A6.25,6.25,0,0,0,6.25,50h37.5A6.25,6.25,0,0,0,50,43.75V6.25A6.25,6.25,0,0,0,43.75,0Z" transform="translate(0)"/><path class="a" d="M10.583,17.332a1.563,1.563,0,0,1,2.213,0L21.063,25.6l8.269-8.272a1.564,1.564,0,1,1,2.212,2.213L22.17,28.919a1.562,1.562,0,0,1-2.213,0l-9.375-9.375a1.563,1.563,0,0,1,0-2.213Z" transform="translate(3.937 6.562)"/><path class="a" d="M18.438,10.125A1.562,1.562,0,0,1,20,11.688V27.313a1.563,1.563,0,0,1-3.125,0V11.688A1.563,1.563,0,0,1,18.438,10.125Z" transform="translate(6.563 3.937)"/></svg>