<svg xmlns="http://www.w3.org/2000/svg" width="91.846" height="90" viewBox="0 0 91.846 90"><defs><style>.a{fill:#5271ff;}.b{fill:#00f0ff;}</style></defs><path class="a" d="M4.277,279.535A1.235,1.235,0,0,0,5.5,280.62h19.21a1.235,1.235,0,0,0,1.181-1.595l-2.516-8.251,7.832-4.95a4.692,4.692,0,0,1,3.418-.442l.077.017,15.988,2.944a20.734,20.734,0,0,0,12.81-1.808,1.288,1.288,0,0,0,.151-.089l27.653-18.986a1.235,1.235,0,0,0,.359-1.655,7.632,7.632,0,0,0-10.177-2.783l-.44.238a6.538,6.538,0,0,0-7.746-1.917l-.027.014-1.086.585a8.494,8.494,0,0,0-9.7-.86L56.5,244.334H48.543a11.48,11.48,0,0,1-4.968-1.138l-1.1-.53a18.858,18.858,0,0,0-19.628,1.917,1.007,1.007,0,0,0-.078.064L20.125,247a9.145,9.145,0,0,1-3.41,1.911l-1.493-4.9a1.234,1.234,0,0,0-1.181-.874H1.233A1.235,1.235,0,0,0,.008,244.53Zm70.156-36a4.012,4.012,0,0,1,4.362.936L68.359,250.1l-.572.3a9.129,9.129,0,0,0-1.4-2.536Zm-10.752-.3.029-.017a6.026,6.026,0,0,1,6.062.019l-5.243,2.825a9.092,9.092,0,0,0-3.29-1.5Zm-41.915,5.606,2.609-2.324A16.4,16.4,0,0,1,41.4,244.888l1.1.53a13.956,13.956,0,0,0,6.042,1.384H59.177a6.684,6.684,0,0,1,6.546,5.376l-7.655-.346a46.126,46.126,0,0,0-8.4.388,1.234,1.234,0,0,0,.338,2.445,43.718,43.718,0,0,1,7.947-.366l9.072.411h.056a1.234,1.234,0,0,0,1.235-1.235c0-.185-.007-.367-.018-.55l1.22-.643,13.142-7.09a5.168,5.168,0,0,1,6.183.961l-26.515,18.2a18.242,18.242,0,0,1-11.194,1.554L35.19,262.977a7.152,7.152,0,0,0-5.213.707c-.019.01-.039.022-.057.034l-7.29,4.608-5.2-17.046a11.621,11.621,0,0,0,4.332-2.431Zm-8.639-3.234,9.919,32.536H6.6L2.628,245.615Zm0,0" transform="translate(0.001 -190.62)"/><path class="a" d="M53.889,390.99a3.8,3.8,0,1,0-3.8-3.8A3.8,3.8,0,0,0,53.889,390.99Zm0-5.123a1.327,1.327,0,1,1-1.327,1.327,1.327,1.327,0,0,1,1.327-1.327Zm0,0" transform="translate(-39.787 -304.554)"/><path class="b" d="M176.025,66.427a17.4,17.4,0,1,0-17.4-17.4A17.4,17.4,0,0,0,176.025,66.427Zm0-32.333a14.932,14.932,0,1,1-14.931,14.932A14.932,14.932,0,0,1,176.025,34.094Zm0,0" transform="translate(-125.987 -25.159)"/><path class="b" d="M134.105,40.842a.637.637,0,0,0,.178.178,23.825,23.825,0,0,0,33.558,0c.034-.025.067-.051.1-.08s.055-.064.08-.1a23.825,23.825,0,0,0,0-33.558.636.636,0,0,0-.178-.178,23.825,23.825,0,0,0-33.558,0,.623.623,0,0,0-.178.178A23.825,23.825,0,0,0,134.105,40.842Zm-3.324-18.013H129.7a21.309,21.309,0,0,1,5.391-12.99l.757.756a1.234,1.234,0,0,0,1.746-1.746l-.756-.756A21.306,21.306,0,0,1,149.828,2.7v1.08a1.235,1.235,0,0,0,2.469,0V2.7a21.309,21.309,0,0,1,12.99,5.391l-.756.757a1.234,1.234,0,0,0,1.746,1.746l.757-.757a21.318,21.318,0,0,1,5.391,12.99h-1.081a1.235,1.235,0,1,0,0,2.469h1.081a21.318,21.318,0,0,1-5.391,12.99l-.757-.757a1.234,1.234,0,0,0-1.746,1.746l.756.757a21.31,21.31,0,0,1-12.99,5.391v-1.08a1.235,1.235,0,1,0-2.469,0v1.08a21.309,21.309,0,0,1-12.99-5.391l.756-.757a1.234,1.234,0,0,0-1.746-1.746l-.756.756A21.309,21.309,0,0,1,129.7,25.3h1.08a1.235,1.235,0,1,0,0-2.469Zm0,0" transform="translate(-101.024 -0.196)"/><path class="b" d="M214.859,81.656h1.525v1.227a1.235,1.235,0,1,0,2.469,0V81.656h1.063v1.227a1.235,1.235,0,1,0,2.469,0V81.4A4.961,4.961,0,0,0,224.1,72.96a4.96,4.96,0,0,0-1.713-8.444V62.922a1.235,1.235,0,1,0-2.469,0v1.343h-1.063V62.922a1.235,1.235,0,1,0-2.469,0v1.343h-1.525a1.234,1.234,0,0,0-1.234,1.235V80.422a1.234,1.234,0,0,0,1.234,1.235Zm8.465-4.966a2.5,2.5,0,0,1-2.5,2.5h-4.734V74.195h4.734A2.5,2.5,0,0,1,223.324,76.69Zm-7.23-9.957h4.734a2.5,2.5,0,1,1,0,4.993h-4.734Zm0,0" transform="translate(-169.671 -49.035)"/></svg>