<svg xmlns="http://www.w3.org/2000/svg" width="80" height="80" viewBox="0 0 80 80"><defs><style>.a{fill:#00f0ff;}</style></defs><path class="a" d="M115.413,302.117a29.162,29.162,0,1,0,29.162,29.163A29.163,29.163,0,0,0,115.413,302.117Zm0,54.187a25.025,25.025,0,1,1,25.024-25.024A25.025,25.025,0,0,1,115.413,356.3Zm0,0" transform="translate(-75.412 -291.281)"/><path class="a" d="M123.239,282.572a1.072,1.072,0,0,0-.3-.3,39.929,39.929,0,0,0-56.24,0,1.072,1.072,0,0,0-.3.3,39.928,39.928,0,0,0,0,56.239,1.765,1.765,0,0,0,.135.166,1.969,1.969,0,0,0,.164.133,39.927,39.927,0,0,0,56.24,0c.057-.042.112-.086.164-.133a2.011,2.011,0,0,0,.135-.166A39.928,39.928,0,0,0,123.239,282.572Zm-1.653,51.958-1.269-1.267a2.069,2.069,0,0,0-2.926,2.926l1.267,1.269a35.713,35.713,0,0,1-21.77,9.034v-1.81a2.069,2.069,0,0,0-4.138,0v1.81a35.72,35.72,0,0,1-21.771-9.034l1.269-1.269a2.069,2.069,0,0,0-2.927-2.926l-1.268,1.267a35.713,35.713,0,0,1-9.034-21.77h1.81a2.069,2.069,0,1,0,0-4.138h-1.81a35.72,35.72,0,0,1,9.034-21.771l1.268,1.269a2.07,2.07,0,0,0,2.927-2.927l-1.269-1.267a35.714,35.714,0,0,1,21.771-9.035v1.81a2.069,2.069,0,0,0,4.138,0v-1.81a35.72,35.72,0,0,1,21.771,9.034l-1.269,1.269a2.069,2.069,0,1,0,2.926,2.926l1.269-1.269a35.72,35.72,0,0,1,9.034,21.771h-1.81a2.069,2.069,0,0,0,0,4.138h1.81A35.713,35.713,0,0,1,121.586,334.53Zm0,0" transform="translate(-54.82 -270.692)"/><path class="a" d="M139.393,362.448h3.328v2.745a2.069,2.069,0,0,0,4.138,0v-2.745h2.768v2.745a2.069,2.069,0,0,0,4.138,0V362.05a9.356,9.356,0,0,0,3.16-16.258,9.357,9.357,0,0,0-3.16-16.259v-3.37a2.069,2.069,0,1,0-4.138,0v2.971h-2.768v-2.971a2.069,2.069,0,1,0-4.138,0v2.971h-3.328a2.069,2.069,0,0,0-2.069,2.069v29.177A2.069,2.069,0,0,0,139.393,362.448Zm16.9-9.363a5.231,5.231,0,0,1-5.226,5.225h-9.6v-10.45h9.6a5.231,5.231,0,0,1,5.226,5.225Zm-14.827-19.814h9.6a5.226,5.226,0,1,1,0,10.451h-9.6Zm0,0" transform="translate(-108.875 -305.679)"/></svg>