<svg xmlns="http://www.w3.org/2000/svg" width="94.872" height="101.54" viewBox="0 0 94.872 101.54"><defs><style>.a{fill:#5271ff;}.b{fill:#00f0ff;}</style></defs><g transform="translate(0 0)"><path class="a" d="M69.547,0A6.958,6.958,0,0,0,62.6,6.95c0,.161.008.32.018.478l-8.637,7.917A6.947,6.947,0,0,0,42.412,22.7l-8.325,7.022a6.941,6.941,0,0,0-11.664-.608l-8.415-5.859A6.963,6.963,0,1,0,12.921,25.5l8.429,5.869a6.95,6.95,0,1,0,13.591.856l8.837-7.454a6.944,6.944,0,0,0,11.509-7.289l8.063-7.39A6.948,6.948,0,1,0,69.547,0ZM7.313,25.888A4.491,4.491,0,1,1,11.8,21.4,4.491,4.491,0,0,1,7.313,25.888Zm20.745,11.78a4.492,4.492,0,1,1,4.491-4.491A4.491,4.491,0,0,1,28.058,37.669ZM48.8,24.467a4.491,4.491,0,1,1,4.491-4.491A4.491,4.491,0,0,1,48.8,24.467ZM69.547,11.441A4.491,4.491,0,1,1,74.038,6.95,4.491,4.491,0,0,1,69.547,11.441Zm0,0" transform="translate(-0.336 0)"/><path class="a" d="M320.059,133.426V104.053a1.229,1.229,0,0,0-1.229-1.229H308.7a1.229,1.229,0,0,0-1.229,1.229v29.256h2.458V105.282H317.6v28.143Zm0,0" transform="translate(-244.554 -81.761)"/><path class="a" d="M218.792,189.089v-21.7a1.229,1.229,0,0,0-1.229-1.229H207.432a1.229,1.229,0,0,0-1.229,1.229V197.3a1.229,1.229,0,0,0,1.229,1.229h4.08v-2.458h-2.851v-27.45h7.673v20.47Zm0,0" transform="translate(-164.032 -132.122)"/><path class="a" d="M116.3,231.195H106.163a1.229,1.229,0,0,0-1.229,1.229v16.585a1.229,1.229,0,0,0,1.229,1.229H116.3a1.229,1.229,0,0,0,1.229-1.229V232.424A1.229,1.229,0,0,0,116.3,231.195Zm-1.229,16.585h-7.674V233.653h7.674Zm0,0" transform="translate(-83.507 -183.835)"/><path class="a" d="M15.028,173.957H4.9a1.229,1.229,0,0,0-1.229,1.229V203.5A1.229,1.229,0,0,0,4.9,204.725H15.028a1.229,1.229,0,0,0,1.229-1.229v-28.31A1.229,1.229,0,0,0,15.028,173.957ZM13.8,202.267H6.126V176.415H13.8Zm0,0" transform="translate(-2.986 -138.322)"/></g><path class="b" d="M264.542,315.544a18.788,18.788,0,1,0-18.788-18.788A18.788,18.788,0,0,0,264.542,315.544Zm0-35.117a16.329,16.329,0,1,1-16.329,16.329A16.329,16.329,0,0,1,264.542,280.427Zm0,0" transform="translate(-195.481 -221.027)"/><path class="b" d="M219.128,287.831a25.764,25.764,0,0,0,36.292,0,1.072,1.072,0,0,0,.106-.086,1.179,1.179,0,0,0,.086-.1,25.764,25.764,0,0,0,0-36.29,1.129,1.129,0,0,0-.087-.106,1.016,1.016,0,0,0-.106-.087,25.763,25.763,0,0,0-36.288,0,1.115,1.115,0,0,0-.107.087,1.25,1.25,0,0,0-.087.106,25.765,25.765,0,0,0,0,36.29,1.346,1.346,0,0,0,.086.1,1.206,1.206,0,0,0,.107.086Zm-5.174-17.108h1.292a1.229,1.229,0,1,0,0-2.458h-1.292a23.257,23.257,0,0,1,5.969-14.383l.906.906a1.229,1.229,0,0,0,1.738-1.739l-.906-.905a23.254,23.254,0,0,1,14.383-5.969v1.292a1.229,1.229,0,1,0,2.458,0v-1.292a23.253,23.253,0,0,1,14.383,5.969l-.906.905a1.23,1.23,0,1,0,1.739,1.739l.9-.906a23.258,23.258,0,0,1,5.97,14.383H259.3a1.229,1.229,0,0,0,0,2.458h1.293a23.258,23.258,0,0,1-5.97,14.383l-.906-.906a1.229,1.229,0,0,0-1.738,1.738l.906.906a23.258,23.258,0,0,1-14.383,5.97v-1.293a1.229,1.229,0,1,0-2.458,0v1.293a23.258,23.258,0,0,1-14.383-5.97l.906-.906a1.229,1.229,0,0,0-1.738-1.738l-.906.906A23.257,23.257,0,0,1,213.954,270.723Zm0,0" transform="translate(-168.213 -193.766)"/><path class="b" d="M302.7,326.575h2.269v1.89a1.229,1.229,0,0,0,2.458,0v-1.89h2.016v1.89a1.229,1.229,0,0,0,2.458,0v-2.121a5.952,5.952,0,0,0,1.98-10.453,5.952,5.952,0,0,0-1.98-10.452V303.17a1.229,1.229,0,0,0-2.458,0v2.037h-2.016V303.17a1.229,1.229,0,0,0-2.458,0v2.037H302.7a1.229,1.229,0,0,0-1.229,1.229v18.909A1.229,1.229,0,0,0,302.7,326.575Zm11.062-5.957a3.5,3.5,0,0,1-3.5,3.5h-6.334v-7h6.334A3.5,3.5,0,0,1,313.76,320.618Zm-9.833-12.953h6.334a3.5,3.5,0,1,1,0,7h-6.334Zm0,0" transform="translate(-239.783 -240.089)"/></svg>