<svg xmlns="http://www.w3.org/2000/svg" width="111.175" height="89.411" viewBox="0 0 111.175 89.411"><defs><style>.a{fill:#00f0ff;}.b{fill:#5271ff;}</style></defs><g transform="translate(0 18.917)"><path class="a" d="M47.465,113.18a18,18,0,1,0,18,18A18,18,0,0,0,47.465,113.18Zm0,33.29a15.289,15.289,0,1,1,15.289-15.289A15.289,15.289,0,0,1,47.465,146.47Zm0,0" transform="translate(-22.807 -106.523)"/><path class="a" d="M91.521,148.571A2.429,2.429,0,0,1,93.948,151a1.356,1.356,0,0,0,2.712,0,5.147,5.147,0,0,0-3.783-4.955v-.906a1.356,1.356,0,0,0-2.712,0v.906a5.138,5.138,0,0,0,1.356,10.094,2.427,2.427,0,1,1,.028,4.853l-.028,0a.153.153,0,0,0-.028,0,2.429,2.429,0,0,1-2.4-2.426,1.356,1.356,0,0,0-2.712,0,5.147,5.147,0,0,0,3.783,4.955V164.6a1.356,1.356,0,1,0,2.712,0v-1.078a5.138,5.138,0,0,0-1.356-10.094,2.427,2.427,0,1,1,0-4.854Zm0,0" transform="translate(-66.863 -130.209)"/><path class="a" d="M42.176,91.039c-.027-.033-.05-.068-.081-.1a1.051,1.051,0,0,0-.1-.08,24.615,24.615,0,0,0-34.675,0,1.051,1.051,0,0,0-.1.08c-.031.031-.054.066-.081.1a24.614,24.614,0,0,0,0,34.674,1.237,1.237,0,0,0,.081.1,1.052,1.052,0,0,0,.1.08,24.614,24.614,0,0,0,34.675,0,1.052,1.052,0,0,0,.1-.08,1.238,1.238,0,0,0,.081-.1A24.614,24.614,0,0,0,42.176,91.039Zm3.365,18.693h1.022A21.854,21.854,0,0,1,41.1,122.9l-.716-.715a1.356,1.356,0,1,0-1.917,1.917l.716.715a21.86,21.86,0,0,1-13.167,5.465v-1.022a1.356,1.356,0,1,0-2.712,0v1.022a21.86,21.86,0,0,1-13.167-5.465l.716-.715a1.356,1.356,0,1,0-1.917-1.917l-.716.715a21.854,21.854,0,0,1-5.464-13.166H3.778a1.356,1.356,0,0,0,0-2.712H2.755A21.855,21.855,0,0,1,8.219,93.854l.716.715a1.356,1.356,0,1,0,1.917-1.916l-.716-.716A21.86,21.86,0,0,1,23.3,86.473V87.5a1.356,1.356,0,0,0,2.712,0V86.473a21.86,21.86,0,0,1,13.167,5.465l-.716.716a1.356,1.356,0,1,0,1.917,1.916l.716-.715a21.855,21.855,0,0,1,5.464,13.167H45.541a1.356,1.356,0,1,0,0,2.712Zm0,0" transform="translate(-0.001 -83.719)"/><path class="a" d="M321.215,113.18a18,18,0,1,0,18,18A18,18,0,0,0,321.215,113.18Zm0,33.29A15.289,15.289,0,1,1,336.5,131.181,15.289,15.289,0,0,1,321.215,146.47Zm0,0" transform="translate(-234.699 -106.523)"/><path class="a" d="M315.926,91.039c-.027-.033-.05-.068-.081-.1a1.053,1.053,0,0,0-.1-.08,24.616,24.616,0,0,0-34.675,0,1.058,1.058,0,0,0-.1.08c-.031.031-.054.066-.081.1a24.614,24.614,0,0,0,0,34.674,1.235,1.235,0,0,0,.081.1,1.059,1.059,0,0,0,.1.08,24.614,24.614,0,0,0,34.675,0,1.055,1.055,0,0,0,.1-.08,1.235,1.235,0,0,0,.081-.1A24.614,24.614,0,0,0,315.926,91.039Zm3.365,18.693h1.022a21.854,21.854,0,0,1-5.464,13.166l-.716-.715a1.356,1.356,0,0,0-1.917,1.917l.716.715a21.86,21.86,0,0,1-13.167,5.465v-1.022a1.356,1.356,0,1,0-2.712,0v1.022a21.86,21.86,0,0,1-13.167-5.465l.716-.715a1.356,1.356,0,0,0-1.917-1.917l-.716.715a21.854,21.854,0,0,1-5.464-13.166h1.022a1.356,1.356,0,1,0,0-2.712h-1.022a21.854,21.854,0,0,1,5.464-13.167l.716.715a1.356,1.356,0,1,0,1.917-1.916l-.716-.716a21.86,21.86,0,0,1,13.167-5.465V87.5a1.356,1.356,0,0,0,2.712,0V86.473a21.86,21.86,0,0,1,13.167,5.465l-.716.716a1.356,1.356,0,1,0,1.917,1.916l.716-.715a21.855,21.855,0,0,1,5.464,13.167h-1.022a1.356,1.356,0,1,0,0,2.712Zm0,0" transform="translate(-211.893 -83.719)"/><path class="a" d="M361.364,137.114v-1.973a1.356,1.356,0,1,0-2.712,0v1.74h-1.531v-1.74a1.356,1.356,0,1,0-2.712,0v1.74h-1.96a1.356,1.356,0,0,0-1.356,1.356v17.925a1.356,1.356,0,0,0,1.356,1.356h1.96v1.6a1.356,1.356,0,1,0,2.712,0v-1.6h1.531v1.6a1.356,1.356,0,1,0,2.712,0v-1.834a5.71,5.71,0,0,0,4.093-5.468v-.271a5.688,5.688,0,0,0-2.017-4.345,5.691,5.691,0,0,0,2.017-4.345v-.272a5.71,5.71,0,0,0-4.093-5.469Zm1.381,14.432v.271a2.993,2.993,0,0,1-2.99,2.99h-5.95v-6.251h5.95A2.994,2.994,0,0,1,362.745,151.546Zm-8.94-5.7v-6.25h5.95a2.993,2.993,0,0,1,2.99,2.99v.271a2.993,2.993,0,0,1-2.99,2.99Zm0,0" transform="translate(-271.759 -122.472)"/></g><path class="b" d="M172.59,0a32.273,32.273,0,0,0-20.467,7.307l-4.832-4.832a1.356,1.356,0,0,0-2.314.959V14.768a1.356,1.356,0,0,0,1.356,1.356h11.334a1.356,1.356,0,0,0,.959-2.314L154.05,9.234a29.616,29.616,0,0,1,42.814,6.125,1.356,1.356,0,1,0,2.221-1.555A32.378,32.378,0,0,0,172.59,0Zm-24.9,13.412V6.707l3.337,3.337.006.007a1.42,1.42,0,0,0,.116.115l3.246,3.246Zm0,0" transform="translate(-112.217 0)"/><path class="b" d="M197.889,324.328H186.555a1.356,1.356,0,0,0-.959,2.314l4.576,4.576a29.615,29.615,0,0,1-42.813-6.125,1.356,1.356,0,0,0-2.222,1.555,32.326,32.326,0,0,0,46.962,6.5l4.832,4.831a1.356,1.356,0,0,0,2.314-.959V325.684a1.356,1.356,0,0,0-1.356-1.356Zm-1.356,9.417-3.337-3.337-.005-.007a1.19,1.19,0,0,0-.117-.115l-3.246-3.246h6.7Zm0,0" transform="translate(-112.152 -251.041)"/></svg>