<svg xmlns="http://www.w3.org/2000/svg" width="88.468" height="102.189" viewBox="0 0 88.468 102.189"><defs><style>.a{fill:#5271ff;}.b{fill:#00f0ff;}</style></defs><path class="a" d="M79.665,192.257l7.02-.991a1.229,1.229,0,0,0,.4-2.3L63.218,176.318l-1.15,2.171,20.524,10.873-4.981.7-15.134-7.644-1.108,2.193,13.548,6.842-30.161,13.1-30.161-13.1,12.648-6.388-1.107-2.193L11.513,190.26l-6.362-.9,21.274-11.27-1.15-2.17L.654,188.963a1.229,1.229,0,0,0,.4,2.3l8.634,1.219L1.247,205.116a1.228,1.228,0,0,0,.541,1.813l8.783,3.737v11.493a1.229,1.229,0,0,0,.622,1.069l32.955,18.7a1.228,1.228,0,0,0,1.213,0l32.955-18.7a1.229,1.229,0,0,0,.622-1.069V210.667l8.783-3.737a1.229,1.229,0,0,0,.54-1.813Zm-67.437.853,30.5,13.245-7.959,11.937L4.115,205.249Zm.8,18.6,21.715,9.24a1.229,1.229,0,0,0,1.5-.449l7.28-10.919v29.161l-30.5-17.3Zm63.453,9.731-30.5,17.3V209.585l7.28,10.919a1.228,1.228,0,0,0,1.5.449l21.714-9.24Zm-21.739-3.152-7.958-11.936,30.5-13.246,8.114,12.138Zm0,0" transform="translate(0 -139.896)"/><g transform="translate(24.575)"><path class="b" d="M208.983,10.287a1.229,1.229,0,0,0,1.229-1.229V1.229a1.229,1.229,0,0,0-2.457,0v7.83A1.229,1.229,0,0,0,208.983,10.287Zm0,0" transform="translate(-189.783)"/><path class="b" d="M207.754,66.383a1.229,1.229,0,0,0,2.457,0V66.33a1.229,1.229,0,0,0-2.457,0Zm0,0" transform="translate(-189.783 -51.77)"/><path class="b" d="M244.4,18.54a1.229,1.229,0,0,0,1.229-1.229V15.838a1.229,1.229,0,1,0-2.457,0v1.473A1.229,1.229,0,0,0,244.4,18.54Zm0,0" transform="translate(-217.951 -11.618)"/><path class="b" d="M243.176,54.884a1.229,1.229,0,1,0,2.457,0v-4.9a1.229,1.229,0,1,0-2.457,0Zm0,0" transform="translate(-217.951 -38.773)"/><path class="b" d="M173.561,17.544a1.229,1.229,0,0,0,1.229-1.229v-.474a1.229,1.229,0,1,0-2.457,0v.474A1.229,1.229,0,0,0,173.561,17.544Zm0,0" transform="translate(-161.615 -11.621)"/><path class="b" d="M172.332,50.815a1.229,1.229,0,1,0,2.457,0V44.869a1.229,1.229,0,1,0-2.457,0Zm0,0" transform="translate(-161.615 -34.704)"/><path class="b" d="M138.143,34.416a1.229,1.229,0,0,0,1.229-1.229V30.459a1.229,1.229,0,0,0-2.457,0v2.728A1.229,1.229,0,0,0,138.143,34.416Zm0,0" transform="translate(-133.45 -23.244)"/><path class="b" d="M136.914,75.53a1.229,1.229,0,0,0,2.457,0V71.1a1.229,1.229,0,0,0-2.457,0Zm0,0" transform="translate(-133.45 -55.559)"/><path class="b" d="M279.823,35.13a1.229,1.229,0,0,0,1.229-1.229V30.459a1.229,1.229,0,0,0-2.457,0V33.9A1.229,1.229,0,0,0,279.823,35.13Zm0,0" transform="translate(-246.116 -23.244)"/><path class="b" d="M278.594,78.836a1.229,1.229,0,1,0,2.457,0V74.46a1.229,1.229,0,0,0-2.457,0Zm0,0" transform="translate(-246.116 -58.234)"/><path class="b" d="M160.108,146.152a14.394,14.394,0,1,0-14.394-14.394A14.394,14.394,0,0,0,160.108,146.152Zm0-26.33a11.936,11.936,0,1,1-11.936,11.936,11.936,11.936,0,0,1,11.936-11.936Zm0,0" transform="translate(-140.449 -93.329)"/><path class="b" d="M159.3,110.329a19.639,19.639,0,0,0-33.373-13.054,1.025,1.025,0,0,0-.293.291,19.557,19.557,0,0,0-5.58,12.339c-.033.464-.05.936-.05,1.4a19.65,19.65,0,0,0,33.481,13.967c.026-.022.055-.042.08-.066s.042-.054.065-.08a19.594,19.594,0,0,0,5.693-13.822c0-.326-.008-.655-.024-.98ZM122.5,112.537h.642a1.229,1.229,0,0,0,0-2.457H122.5v0a17.076,17.076,0,0,1,4.171-10.019l.441.44a1.228,1.228,0,0,0,1.738-1.737l-.44-.441a17.168,17.168,0,0,1,10.021-4.165v.637a1.229,1.229,0,1,0,2.457,0v-.638A17.144,17.144,0,0,1,150.93,98.3l-.461.46a1.229,1.229,0,1,0,1.737,1.737l.46-.46a17.116,17.116,0,0,1,4.147,10.041h-.638a1.229,1.229,0,1,0,0,2.457h.638a17.12,17.12,0,0,1-4.161,10.027l-.446-.446a1.229,1.229,0,0,0-1.737,1.738l.446.446a17.121,17.121,0,0,1-10.027,4.161v-.637a1.229,1.229,0,1,0-2.457,0v.641a17.155,17.155,0,0,1-10.045-4.145l.464-.464a1.229,1.229,0,1,0-1.737-1.737l-.463.463a17.194,17.194,0,0,1-4.147-10.045Zm0,0" transform="translate(-120 -72.88)"/><path class="b" d="M188.729,154.425h1.394v1.11a1.229,1.229,0,1,0,2.457,0v-1.11h.9v1.11a1.229,1.229,0,1,0,2.457,0V154.17a4.769,4.769,0,0,0,1.657-8.063,4.769,4.769,0,0,0-1.657-8.062V136.57a1.229,1.229,0,0,0-2.457,0v1.219h-.9v-1.221a1.229,1.229,0,1,0-2.457,0v1.221h-1.394a1.229,1.229,0,0,0-1.229,1.229V153.2A1.229,1.229,0,0,0,188.729,154.425Zm7.987-4.773a2.319,2.319,0,0,1-2.316,2.316h-4.442v-4.632H194.4A2.319,2.319,0,0,1,196.715,149.652Zm-6.758-9.4H194.4a2.316,2.316,0,1,1,0,4.631h-4.442Zm0,0" transform="translate(-173.677 -107.624)"/></g></svg>