<svg xmlns="http://www.w3.org/2000/svg" width="20" height="20" viewBox="0 0 20 20"><defs><style>.a{fill:#fff;}.b{fill:#14085a;}</style></defs><g transform="translate(-3279 -1222)"><circle class="a" cx="10" cy="10" r="10" transform="translate(3279 1222)"/><g transform="translate(3280 1223)"><g transform="translate(5.006 8.449)"><path class="b" d="M38.084,60.4c-.057.311-.835,2.491-1.146,3.41a1.381,1.381,0,0,1-.467.693.711.711,0,0,1-.821.042.566.566,0,0,1-.226-.736c.4-1.175.807-2.363,1.231-3.538a.824.824,0,0,1,.962-.552A.579.579,0,0,1,38.084,60.4Z" transform="translate(-35.378 -59.705)"/></g><path class="b" d="M11,10.783a.957.957,0,0,1,1.175-.552,1.034,1.034,0,0,1,.382,1.542,7.547,7.547,0,0,1-1.726,2.392A6.239,6.239,0,0,1,7.5,15.283a9.767,9.767,0,0,1-2.858-.4.3.3,0,0,0-.226,0,.268.268,0,0,0-.113.142c-.127.3-.425.92-.439.948a.251.251,0,0,0-.014.156.269.269,0,0,0,.085.142A8.167,8.167,0,0,0,8.986,18,9,9,0,1,0,0,9a8.9,8.9,0,0,0,1.981,5.618l2.462-7.16S4.7,6.467,5.575,6.4a1.074,1.074,0,0,1,1.075.481c.042.042.071.085.113.085a.525.525,0,0,0,.127-.028,2.394,2.394,0,0,1,2.5.283,2.028,2.028,0,0,1,.552,2.321,31.213,31.213,0,0,1-1.231,3.608c-.014.057-.014.085.1.057a3.006,3.006,0,0,0,1.2-.778A8.685,8.685,0,0,0,11,10.783Z"/></g></g></svg>